<svg width="384.97" height="384.97" xmlns="http://www.w3.org/2000/svg">

 <g>
  <title>background</title>
  <rect fill="none" id="canvas_background" height="402" width="582" y="-1" x="-1"/>
 </g>
 <g>
  <title>Layer 1</title>
  <g id="svg_1">
   <g id="Chevron_Up_Circle">
    <path fill="#10898b" id="svg_2" d="m192.485,0c-106.312,0 -192.485,86.185 -192.485,192.485c0,106.312 86.173,192.485 192.485,192.485c106.3,0 192.485,-86.173 192.485,-192.485c0,-106.3 -86.185,-192.485 -192.485,-192.485zm0,360.909c-92.874,0 -168.797,-75.55 -168.797,-168.424s75.923,-168.424 168.797,-168.424s168.424,75.55 168.424,168.424s-75.55,168.424 -168.424,168.424z"/>
    <path fill="#10898b" id="svg_3" d="m200.894,135.858c-4.62,-4.572 -12.56,-4.584 -17.191,0l-84.2,82.997c-4.74,4.704 -4.74,12.319 0,17.011c4.752,4.704 12.439,4.704 17.191,0l75.61,-74.528l75.61,74.54c4.74,4.704 12.439,4.704 17.191,0c4.74,-4.704 4.74,-12.319 0,-17.011l-84.211,-83.009z"/>
   </g>
   <g id="svg_4"/>
   <g id="svg_5"/>
   <g id="svg_6"/>
   <g id="svg_7"/>
   <g id="svg_8"/>
   <g id="svg_9"/>
  </g>
  <g id="svg_10"/>
  <g id="svg_11"/>
  <g id="svg_12"/>
  <g id="svg_13"/>
  <g id="svg_14"/>
  <g id="svg_15"/>
  <g id="svg_16"/>
  <g id="svg_17"/>
  <g id="svg_18"/>
  <g id="svg_19"/>
  <g id="svg_20"/>
  <g id="svg_21"/>
  <g id="svg_22"/>
  <g id="svg_23"/>
  <g id="svg_24"/>
 </g>
</svg>