<?xml version="1.0" encoding="UTF-8" standalone="no"?>
<!-- Generator: Adobe Illustrator 19.0.0, SVG Export Plug-In . SVG Version: 6.00 Build 0)  -->

<svg
   xmlns:dc="http://purl.org/dc/elements/1.1/"
   xmlns:cc="http://creativecommons.org/ns#"
   xmlns:rdf="http://www.w3.org/1999/02/22-rdf-syntax-ns#"
   xmlns:svg="http://www.w3.org/2000/svg"
   xmlns="http://www.w3.org/2000/svg"
   xmlns:sodipodi="http://sodipodi.sourceforge.net/DTD/sodipodi-0.dtd"
   xmlns:inkscape="http://www.inkscape.org/namespaces/inkscape"
   version="1.1"
   id="Layer_1"
   x="0px"
   y="0px"
   viewBox="0 0 512 512"
   style="enable-background:new 0 0 512 512;"
   xml:space="preserve"
   sodipodi:docname="lecture_bw.svg"
   inkscape:version="0.92.2 (5c3e80d, 2017-08-06)"><sodipodi:namedview
     pagecolor="#ffffff"
     bordercolor="#666666"
     borderopacity="1"
     objecttolerance="10"
     gridtolerance="10"
     guidetolerance="10"
     inkscape:pageopacity="0"
     inkscape:pageshadow="2"
     inkscape:window-width="640"
     inkscape:window-height="480"
     id="namedview73"
     showgrid="false"
     inkscape:zoom="0.4609375"
     inkscape:cx="256"
     inkscape:cy="256"
     inkscape:window-x="85"
     inkscape:window-y="41"
     inkscape:window-maximized="0"
     inkscape:current-layer="Layer_1" /><metadata
     id="metadata77"><rdf:RDF><cc:Work
         rdf:about=""><dc:format>image/svg+xml</dc:format><dc:type
           rdf:resource="http://purl.org/dc/dcmitype/StillImage" /><dc:title></dc:title></cc:Work></rdf:RDF></metadata><defs
     id="defs75" /><path
     id="path2"
     d="M256.001,512C397,512,512,396.998,512,255.999S397,0,256.001,0C115,0,0,115,0,255.999  S115,512,256.001,512z"
     style="fill:#b6b6b6;;opacity:1" /><path
     id="path4"
     d="M164.231,252.956c12.451-20.929,32.074-45.226,12.147-82.16  C147.042,42.537,282.231,16.53,302.675,69.465c33.26,12.543,32.376,81.586,15.268,117.715  c-0.763,14.867-16.221,27.833,11.712,66.191l2.012-0.438l0,0c-36.237,10.502-129.125,5.668-167.433,0.024H164.231z"
     style="fill:#666666;;opacity:1" /><path
     id="path6"
     d="M199.749,186.524c10.193,21.414,13.965,29.776,26.623,39.397  c-2.959,54.535-44.835,28.478-75.461,77.921c-2.641,4.268-10.92,25.6-18.217,46.348c33.928,22.219,74.488,35.148,118.071,35.148  c43.581,0,84.14-12.931,118.069-35.148c-7.297-20.748-15.575-42.081-18.217-46.348c-30.623-49.443-72.502-23.389-75.461-77.921  c12.661-9.624,16.43-17.983,26.623-39.397c2.5,1.304,5.11,3.077,7.14,0.795c2.028-2.282,11.683-31.906,9.946-35.904  s-3.431-1.453-6.022,0.362c0.134-0.863-2.041,10.704-2.012,8.944c0.247-13.986-9.779-26.309-12.916-63.309  c-29.073,53.769-112.807,31.654-109.234,54.361c-16.307-11.418,3.51,35.075,3.927,35.542c2.028,2.282,4.64,0.509,7.137-0.795  L199.749,186.524z"
     style="fill:#d8d8d8;;opacity:1" /><path
     id="path8"
     d="M219.618,251.38c-3.588,5.637-8.391,9.246-13.952,12.218l0.005,0.008l46.715,88.539l43.35-88.61  c-6.203-3.329-11.447-7.468-15.111-14.353h-0.005l-29.64,14.741l-0.91,0.063l-26.298-14.075L219.618,251.38z"
     style="fill:#efefef;;opacity:1" /><path
     id="path10"
     d="M243.482,264.269l2.765,8.241l-6.146,93.916l10.602,9.805l10.6-9.805l-6.143-93.916l2.765-8.241  l-7.221-0.349L243.482,264.269z"
     style="fill:#8d8d8d;;opacity:1" /><path
     id="path12"
     d="M226.461,225.923c-0.729,12.666-3.851,20.682-8.598,26.288l33.12,11.709l33.795-10.437  c-5.39-5.65-8.829-13.902-9.618-27.56c0,0-14.083,9.7-24.84,9.794C239.563,235.812,226.461,225.923,226.461,225.923z"
     style="fill:#c3c3c3;;opacity:1" /><path
     id="path14"
     d="M205.666,263.598c-15.531,8.297-37.021,11.633-54.752,40.247c-2.641,4.268-10.92,25.6-18.217,46.348  c33.928,22.219,74.488,35.148,118.071,35.148c43.581,0,84.14-12.931,118.069-35.148c-7.297-20.748-15.575-42.081-18.217-46.348  c-17.771-28.696-39.334-31.961-54.881-40.31l-44.649,87.527l-45.417-87.456l-0.005-0.008H205.666z"
     style="fill:#898989;;opacity:1" /><path
     id="path16"
     d="M222.967,240.885l-7.043,14.684l20.934,35.174l13.692-26.823L222.967,240.885z M278.57,240.885  L278.57,240.885l7.166,14.345l-21.057,35.513l-13.695-26.823L278.57,240.885z"
     style="fill:#ffffff;;opacity:1" /><path
     id="path18"
     d="M209.228,261.523l41.876,81.557l41.241-81.52c2.072,1.317,4.286,2.489,6.602,3.599l-47.846,93.494  l-48.297-93.607c2.253-1.086,4.401-2.235,6.421-3.523H209.228z"
     style="fill:#9a9a9a;;opacity:1" /><path
     id="path20"
     d="M133.668,221.26l47.883-10.891v8.234l-46.065,10.891c-1.128,0.092-8.635,3.15-10.993,5.508  c-2.358,2.355-3.822,5.605-3.822,9.175c0,23.447,0.037,46.875,0.037,70.283h-4.155h-4.115v-4.115v-66.168  c0-5.844,2.39-11.156,6.232-14.998c3.848-3.845,11.885-7.544,15.001-7.919H133.668z"
     style="fill:#ffffff;;opacity:1" /><path
     id="path22"
     d="M153.886,211.772l36.953-7.79c3.079-0.648,6.13,1.34,6.778,4.42l1.133,5.377  c0.65,3.079-1.34,6.13-4.42,6.778l-36.953,7.79c-3.079,0.651-6.13-1.34-6.778-4.417l-1.133-5.377  c-0.648-3.079,1.338-6.13,4.417-6.778L153.886,211.772z"
     style="fill:#b9b9b9;;opacity:1" /><path
     id="path24"
     d="M116.542,297.203c10.954,0,19.838,8.884,19.838,19.838l-0.003,0.134H96.704l-0.003-0.134  C96.702,306.085,105.586,297.203,116.542,297.203z"
     style="fill:#7e7e7e;;opacity:1" /><g
     id="g30"><path
       id="path26"
       d="M72.783,313.725h366.432v26.846H72.783V313.725z"
       style="fill:#b9b9b9;;opacity:1" /><path
       id="path28"
       d="M120.435,340.572h271.133v171.426h-142.68H120.435V340.572z"
       style="fill:#b9b9b9;;opacity:1" /></g><g
     id="g36"><path
       id="path32"
       d="M72.783,340.572l47.652,30.199v-30.199H72.783z M439.215,340.572L439.215,340.572l-47.652,30.199   v-30.199H439.215z"
       style="fill:#a9a9a9;;opacity:1" /><path
       id="path34"
       d="M120.435,340.572h271.133v11.405H120.435V340.572z"
       style="fill:#a9a9a9;;opacity:1" /></g><rect
     id="rect38"
     height="43.662"
     width="271.133"
     style="fill:#aeaeae;;opacity:1"
     y="416.012"
     x="120.435" /><circle
     id="circle40"
     r="50.285"
     cy="437.843"
     cx="255.999"
     style="fill:#b3b3b3;;opacity:1" /><g
     id="g42" /><g
     id="g44" /><g
     id="g46" /><g
     id="g48" /><g
     id="g50" /><g
     id="g52" /><g
     id="g54" /><g
     id="g56" /><g
     id="g58" /><g
     id="g60" /><g
     id="g62" /><g
     id="g64" /><g
     id="g66" /><g
     id="g68" /><g
     id="g70" /></svg>