<svg xmlns="http://www.w3.org/2000/svg" xmlns:xlink="http://www.w3.org/1999/xlink" version="1.1" style="" xml:space="preserve" width="512.002" height="512.002"><rect id="backgroundrect" width="100%" height="100%" x="0" y="0" fill="none" stroke="none"/>
















<g class="currentLayer" style=""><title>Layer 1</title><g id="svg_1" class="selected" fill="#5f3994" fill-opacity="1">
	<g id="svg_2" fill="#5f3994" fill-opacity="1">
		<g id="svg_3" fill="#5f3994" fill-opacity="1">
			<path d="M394.667,42.667h-128c-11.782,0-21.333,9.551-21.333,21.333v128c0,11.782,9.551,21.333,21.333,21.333h128     c11.782,0,21.333-9.551,21.333-21.333V64C416,52.218,406.449,42.667,394.667,42.667z M290.347,192     c7.707-22.268,32.007-34.072,54.275-26.365c12.366,4.28,22.085,13.999,26.365,26.365H290.347z M309.333,117.333     c0-11.782,9.551-21.333,21.333-21.333C342.449,96,352,105.551,352,117.333c0,11.782-9.551,21.333-21.333,21.333     C318.885,138.667,309.333,129.116,309.333,117.333z M394.667,192h-1.387c-4.028-18.843-16.331-34.868-33.493-43.627     c17.25-16.053,18.221-43.051,2.167-60.301c-16.053-17.25-43.051-18.221-60.301-2.167c-17.25,16.053-18.221,43.051-2.167,60.301     c0.696,0.748,1.419,1.471,2.167,2.167c-17.203,8.734-29.548,24.763-33.6,43.627h-1.387V64h128V192z" id="svg_4" fill="#5f3994" fill-opacity="1"/>
			<path d="M432.429,0.002C432.357,0.001,432.285,0,432.214,0h-282.88c-2.835-0.016-5.56,1.097-7.573,3.093L56.427,88.427     c-1.997,2.013-3.11,4.738-3.093,7.573v389.547c0.058,14.586,11.868,26.395,26.453,26.453h352     c14.668,0.177,26.701-11.57,26.878-26.238c0.001-0.072,0.001-0.144,0.002-0.215V26.88     C458.844,12.213,447.097,0.179,432.429,0.002z M437.334,485.547c0,2.828-2.292,5.12-5.12,5.12h-352     c-2.818,0.236-5.293-1.858-5.529-4.675c-0.012-0.148-0.018-0.296-0.018-0.445V100.374l64-64v44.16     c-0.057,2.627-2.173,4.743-4.8,4.8h-27.2v21.333h32c12.352-2.351,21.299-13.133,21.333-25.707V21.333h272.213     c2.828,0,5.12,2.292,5.12,5.12V485.547z" id="svg_5" fill="#5f3994" fill-opacity="1"/>
			<rect x="192" y="256" width="170.66700744628906" height="21.33300018310547" id="svg_6" fill="#5f3994" fill-opacity="1"/>
			<rect x="149.33299255371094" y="309.3330078125" width="213.33299255371094" height="21.33300018310547" id="svg_7" fill="#5f3994" fill-opacity="1"/>
			<rect x="149.33299255371094" y="362.6669921875" width="213.33299255371094" height="21.33300018310547" id="svg_8" fill="#5f3994" fill-opacity="1"/>
			<rect x="149.33299255371094" y="416" width="170.66700744628906" height="21.33300018310547" id="svg_9" fill="#5f3994" fill-opacity="1"/>
			<rect x="341.3340148925781" y="416" width="21.33300018310547" height="21.33300018310547" id="svg_10" fill="#5f3994" fill-opacity="1"/>
		</g>
	</g>
</g><g id="svg_11">
</g><g id="svg_12">
</g><g id="svg_13">
</g><g id="svg_14">
</g><g id="svg_15">
</g><g id="svg_16">
</g><g id="svg_17">
</g><g id="svg_18">
</g><g id="svg_19">
</g><g id="svg_20">
</g><g id="svg_21">
</g><g id="svg_22">
</g><g id="svg_23">
</g><g id="svg_24">
</g><g id="svg_25">
</g></g></svg>